<svg xmlns="http://www.w3.org/2000/svg" viewBox="0 0 768 768" width="768" height="768">
  <path fill="#111111" fill-rule="nonzero" d="M 552.179688 234.960938 C 552.589844 235.113281 552.367188 234.96875 552.65625 235.59375 C 550.167969 242.265625 546.230469 250.429688 543.335938 257.113281 C 536.550781 273.078125 529.597656 288.96875 522.472656 304.785156 L 461.507812 443.785156 C 460.65625 445.773438 457.820312 453.359375 458.988281 454.59375 C 464.402344 460.292969 480.539062 465.617188 487.539062 468.28125 C 495.082031 471.210938 502.59375 474.226562 510.066406 477.328125 L 466.785156 477.25 L 414.523438 477.199219 C 416.746094 470.125 424.878906 453.359375 428.226562 445.84375 L 458.484375 378.007812 L 494.074219 296.851562 C 498.257812 287.179688 502.5 277.535156 506.800781 267.914062 C 508.851562 263.363281 511.78125 256.558594 514.222656 252.308594 C 523.917969 246.882812 541.363281 239.960938 552.179688 234.960938 Z"/>
  <path fill="#111111" fill-rule="nonzero" d="M 238.996094 235.667969 C 241.839844 236.574219 250.816406 241.675781 253.796875 243.328125 L 280.65625 258.335938 C 285.738281 267.792969 289.554688 277.121094 293.960938 286.894531 C 298.011719 295.867188 302.210938 304.804688 306.308594 313.769531 L 346.589844 400.625 C 350.355469 408.8125 354.0625 417.027344 357.714844 425.265625 C 359.824219 430.003906 362.238281 435.847656 364.65625 440.339844 C 361.125 447.714844 356.878906 457.535156 353.816406 465.109375 C 352.058594 468.886719 349.78125 473.464844 348.339844 477.296875 C 345.351562 472.261719 341.378906 462.335938 338.914062 456.667969 C 334.566406 446.652344 330.089844 436.691406 325.476562 426.792969 L 263.042969 289.292969 C 257.589844 277.335938 252.195312 265.351562 246.863281 253.34375 C 244.597656 248.257812 241.445312 240.257812 238.996094 235.667969 Z"/>
  <path fill="#111111" fill-rule="nonzero" d="M 491.015625 262.917969 L 491.832031 263.148438 C 491.917969 265.25 488.289062 271.667969 487.226562 274.066406 L 460.546875 334.46875 L 407.21875 455.226562 C 404.058594 462.367188 400.074219 470.144531 397.238281 477.179688 C 388.121094 477.585938 375.855469 477.324219 366.640625 477.207031 C 365.96875 477.125 366.355469 477.242188 365.589844 476.621094 C 365.738281 473.328125 392.1875 415.597656 395.515625 408.152344 C 414.234375 365.589844 433.222656 323.140625 452.476562 280.816406 C 456.300781 278.417969 462.660156 275.785156 466.871094 273.894531 C 474.988281 270.253906 483.011719 266.847656 491.015625 262.917969 Z"/>
  <path fill="#111111" fill-rule="nonzero" d="M 307.1875 276.847656 C 311.472656 277.574219 345.015625 299.152344 350.964844 302.996094 C 358.144531 318.003906 365.054688 336.769531 372.402344 351.03125 C 379.261719 336.378906 385.890625 321.621094 392.289062 306.761719 C 400.753906 301.792969 422.082031 293.234375 431.683594 289.242188 C 424.699219 305.625 416.183594 322.640625 409.660156 338.539062 C 397.160156 365.695312 384.988281 392.996094 373.140625 420.4375 C 370.914062 416.425781 368.433594 410.433594 366.441406 406.113281 L 353.410156 377.566406 L 320.035156 305.136719 C 316.457031 297.351562 312.828125 289.582031 309.453125 281.703125 C 308.75 280.054688 308.046875 278.421875 307.1875 276.847656 Z"/>
</svg>
